<svg width="56" height="76" viewBox="0 0 56 76" fill="none" xmlns="http://www.w3.org/2000/svg"><path d="M51.0839 34.9519C52.9749 31.4968 53.9317 27.9253 53.9317 24.2297C53.9317 10.9962 43.8122 1.84961 29.0219 1.84961C14.8154 1.84961 4.11174 10.4124 2.06834 23.5485L15.691 29.9707C15.5937 20.7267 20.9456 14.4019 28.7299 14.4019C35.3467 14.4019 39.8226 18.7806 39.8226 24.7162C39.8226 28.2274 38.2395 31.2636 34.1408 34.9519M28.0964 55.6546L26.5893 56.7294C24.6582 58.0343 22.8935 59.57 21.3347 61.3027H54.1263V74.0496H1.87378V72.1035C1.87378 66.1805 4.05071 60.7363 8.40458 55.6546" stroke="black" stroke-width="2" stroke-linecap="round" stroke-linejoin="round"/></svg>