<svg width="31" height="31" viewBox="0 0 31 31" fill="none" xmlns="http://www.w3.org/2000/svg">
<path d="M22 0H9C4.02944 0 0 4.02944 0 9V22C0 26.9706 4.02944 31 9 31H22C26.9706 31 31 26.9706 31 22V9C31 4.02944 26.9706 0 22 0Z" fill="white"/>
<path d="M9 1C6.879 1.00238 4.84555 1.846 3.34578 3.34578C1.846 4.84555 1.00238 6.879 1 9V22C1.00238 24.121 1.846 26.1544 3.34578 27.6542C4.84555 29.154 6.879 29.9976 9 30H22C24.121 29.9976 26.1544 29.154 27.6542 27.6542C29.154 26.1544 29.9976 24.121 30 22V9C29.9976 6.879 29.154 4.84555 27.6542 3.34578C26.1544 1.846 24.121 1.00238 22 1H9ZM9 0H22C24.3869 0 26.6761 0.948212 28.364 2.63604C30.0518 4.32387 31 6.61305 31 9V22C31 24.3869 30.0518 26.6761 28.364 28.364C26.6761 30.0518 24.3869 31 22 31H9C6.61305 31 4.32387 30.0518 2.63604 28.364C0.948212 26.6761 0 24.3869 0 22L0 9C0 6.61305 0.948212 4.32387 2.63604 2.63604C4.32387 0.948212 6.61305 0 9 0Z" fill="#A57162"/>
<path d="M10.8923 20.7933L10.1867 20.0847L20.1078 10.2068L20.8134 10.9154L10.8923 20.7933Z" fill="#A57162"/>
<path d="M10.2067 10.8923L10.9153 10.1867L20.7932 20.1078L20.0846 20.8134L10.2067 10.8923Z" fill="#A57162"/>
</svg>
