<svg width="166" height="45" viewBox="0 0 166 45" fill="none" xmlns="http://www.w3.org/2000/svg">
<path d="M66.4913 19.016C66.4913 20.277 66.3484 21.3592 66.0633 22.262C65.7776 23.1648 65.3828 23.9047 64.8783 24.4817C64.3737 25.0594 63.7767 25.4846 63.0865 25.7565C62.3963 26.0285 61.6398 26.1645 60.8164 26.1645C59.6879 26.1645 58.7589 25.9388 58.0286 25.4874C57.2984 25.036 56.7241 24.432 56.3065 23.6756C55.8883 22.9191 55.5998 22.0826 55.4403 21.1666C55.2809 20.2507 55.2015 19.3348 55.2015 18.4189V7.76553H51.2791V19.693C51.2791 20.4233 51.3453 21.2398 51.4785 22.1419C51.611 23.0447 51.8533 23.9475 52.2053 24.8503C52.5566 25.7531 53.0515 26.5793 53.6886 27.3295C54.3256 28.0798 55.1449 28.6872 56.1478 29.1517C57.15 29.6162 58.3744 29.8488 59.8218 29.8488C61.7067 29.8488 63.3329 29.4374 64.7002 28.6147C65.5816 28.0839 66.3305 27.4103 66.9503 26.5979V29.2718H70.3951V7.76553H66.4927V19.016H66.4913Z" fill="white"/>
<path d="M88.2148 18.2892C87.1395 17.7253 85.679 17.2042 83.834 16.7258C82.1479 16.3014 80.8703 15.9293 80.0006 15.6105C79.131 15.2916 78.5401 14.9603 78.2282 14.6152C77.9162 14.2701 77.7602 13.8456 77.7602 13.3411C77.7602 12.4783 78.1716 11.795 78.995 11.2897C79.8177 10.7852 80.8869 10.5533 82.201 10.5926C83.5952 10.6458 84.7299 10.9874 85.6058 11.6183C86.4817 12.2491 87 13.1085 87.1588 14.1969L91.1213 13.4798C90.9618 12.2057 90.487 11.0937 89.6974 10.1447C88.9071 9.19565 87.8683 8.46196 86.5811 7.9443C85.2932 7.42664 83.8265 7.16782 82.1803 7.16782C80.5342 7.16782 79.0509 7.4301 77.8099 7.95466C76.5689 8.47921 75.5998 9.22257 74.9027 10.1847C74.2056 11.1476 73.8571 12.2657 73.8571 13.5398C73.8571 14.589 74.089 15.4745 74.5542 16.1978C75.0187 16.9219 75.7917 17.5555 76.874 18.0994C77.9555 18.6439 79.4326 19.1685 81.3044 19.6723C83.03 20.1237 84.3144 20.5089 85.1572 20.8278C85.9999 21.1459 86.5542 21.4848 86.8199 21.8431C87.0856 22.2013 87.2181 22.6665 87.2181 23.2373C87.2181 24.2194 86.8268 24.9966 86.0434 25.5667C85.26 26.1375 84.1785 26.4233 82.798 26.4233C81.3113 26.4233 80.0669 26.0913 79.0647 25.428C78.0618 24.7647 77.422 23.8619 77.1432 22.7203L73.1807 23.3374C73.552 25.3949 74.5576 26.9948 76.1976 28.1364C77.8368 29.278 79.9578 29.8488 82.5592 29.8488C85.1606 29.8488 87.3714 29.2518 88.9112 28.057C90.4511 26.8623 91.2207 25.2092 91.2207 23.0985C91.2207 21.997 90.9881 21.061 90.5236 20.2915C90.0584 19.5219 89.2888 18.8544 88.2134 18.2905L88.2148 18.2892Z" fill="white"/>
<path d="M108.843 8.68145C107.316 7.67305 105.465 7.16782 103.288 7.16782C101.111 7.16782 99.3583 7.63923 97.7922 8.58137C96.2254 9.52419 95.0072 10.8549 94.1382 12.5735C93.2686 14.2929 92.8337 16.3269 92.8337 18.6764C92.8337 21.0258 93.2782 22.8611 94.1679 24.5404C95.0569 26.2197 96.2951 27.5269 97.8819 28.4629C99.468 29.3988 101.33 29.8667 103.467 29.8667C105.605 29.8667 107.437 29.3422 109.122 28.2938C110.807 27.2453 112.069 25.7648 112.906 23.8536L109.142 22.5988C108.584 23.7674 107.808 24.6598 106.813 25.2768C105.817 25.8939 104.643 26.2031 103.288 26.2031C101.244 26.2031 99.6772 25.5329 98.5887 24.1918C97.6694 23.0599 97.1434 21.5297 97.0005 19.6116H113.225C113.357 17.0495 113.042 14.8395 112.279 12.9808C111.516 11.1227 110.371 9.68846 108.844 8.68007L108.843 8.68145ZM98.5887 12.664C99.6772 11.3098 101.29 10.6327 103.427 10.6327C105.378 10.6327 106.842 11.2532 107.818 12.4942C108.57 13.4515 109.041 14.805 109.237 16.5464H97.084C97.3015 14.941 97.8005 13.6434 98.588 12.6633L98.5887 12.664Z" fill="white"/>
<path d="M120.352 0H116.469V29.2711H120.352V0Z" fill="white"/>
<path d="M139.123 8.68145C137.597 7.67305 135.745 7.16782 133.568 7.16782C131.391 7.16782 129.639 7.63923 128.072 8.58137C126.506 9.52419 125.287 10.8549 124.418 12.5735C123.548 14.2929 123.113 16.3269 123.113 18.6764C123.113 21.0258 123.558 22.8611 124.447 24.5404C125.336 26.2197 126.575 27.5269 128.161 28.4629C129.748 29.3988 131.609 29.8667 133.747 29.8667C135.884 29.8667 137.716 29.3422 139.402 28.2938C141.087 27.2453 142.349 25.7648 143.185 23.8536L139.422 22.5988C138.864 23.7674 138.087 24.6598 137.092 25.2768C136.097 25.8939 134.921 26.2031 133.568 26.2031C131.523 26.2031 129.957 25.5329 128.868 24.1918C127.949 23.0599 127.423 21.5297 127.28 19.6116H143.504C143.637 17.0495 143.321 14.8395 142.559 12.9808C141.795 11.1227 140.65 9.68846 139.123 8.68007V8.68145ZM128.869 12.664C129.957 11.3098 131.57 10.6327 133.707 10.6327C135.659 10.6327 137.122 11.2532 138.098 12.4942C138.85 13.4515 139.321 14.805 139.517 16.5464H127.364C127.582 14.941 128.08 13.6434 128.868 12.6633L128.869 12.664Z" fill="white"/>
<path d="M164.019 19.6137H165.97C166.103 17.0516 165.788 14.8416 165.025 12.9828C164.261 11.1248 163.116 9.69054 161.59 8.68215C160.063 7.67375 158.211 7.16852 156.034 7.16852C153.857 7.16852 152.105 7.63993 150.538 8.58207C148.972 9.52489 147.754 10.8556 146.884 12.5742C146.014 14.2936 145.58 16.3276 145.58 18.6771C145.58 21.0265 146.024 22.8618 146.914 24.5411C147.803 26.2204 149.041 27.5276 150.628 28.4636C152.214 29.3995 154.075 29.8674 156.213 29.8674C158.351 29.8674 160.182 29.3429 161.868 28.2945C163.553 27.246 164.815 25.7655 165.651 23.8543L161.888 22.5995C161.33 23.7681 160.554 24.6605 159.558 25.2775C158.563 25.8946 157.388 26.2038 156.034 26.2038C153.99 26.2038 152.423 25.5336 151.335 24.1925C150.415 23.0606 149.889 21.5304 149.746 19.6123H164.019L164.019 19.6137ZM151.335 12.6647C152.424 11.3105 154.037 10.6334 156.174 10.6334C158.125 10.6334 159.589 11.2539 160.564 12.4949C161.316 13.4522 161.787 14.8057 161.983 16.5471H149.831C150.048 14.9417 150.546 13.6441 151.335 12.664L151.335 12.6647Z" fill="white"/>
<path d="M24.9663 6.78059L18.312 6.78611L20.95 2.21347H27.6181L32.8195 11.2214L38.0147 2.21347H43.3093L32.8195 20.375L24.9663 6.78059Z" fill="#25EFD2"/>
<path d="M34.7678 26.1113L38.0898 20.3453L40.7312 24.9159L37.3968 30.6909L26.9947 30.6916L32.1989 39.6946L29.5512 44.2797L19.0676 26.1141L34.7678 26.1113Z" fill="#25EFD2"/>
<path d="M13.1264 24.9338L16.4587 30.6943L11.18 30.6957L7.84561 24.9214L13.0463 15.912L2.64764 15.9176L0 11.3318L20.9734 11.336L13.1264 24.9338Z" fill="#25EFD2"/>
</svg>
